<?xml version="1.0" standalone="no"?>
<!DOCTYPE svg PUBLIC "-//W3C//DTD SVG 20010904//EN"
 "http://www.w3.org/TR/2001/REC-SVG-20010904/DTD/svg10.dtd">
<svg version="1.0" xmlns="http://www.w3.org/2000/svg"
 width="128.000000pt" height="128.000000pt" viewBox="0 0 128.000000 128.000000"
 preserveAspectRatio="xMidYMid meet">

<g transform="translate(0.000000,128.000000) scale(0.100000,-0.100000)"
fill="#000000" stroke="none">
<path d="M495 1206 c-205 -48 -358 -188 -426 -391 -19 -56 -24 -92 -24 -175 0
-122 13 -175 68 -283 91 -177 268 -290 477 -304 351 -22 638 263 617 612 -15
247 -166 447 -397 525 -83 28 -231 35 -315 16z m152 -318 c-2 -13 -4 -5 -4 17
-1 22 1 32 4 23 2 -10 2 -28 0 -40z m33 6 c0 -46 -15 -36 -18 11 -2 23 1 34 8
30 5 -3 10 -22 10 -41z m30 6 c0 -16 -4 -30 -10 -30 -5 0 -10 14 -10 30 0 17
5 30 10 30 6 0 10 -13 10 -30z m-112 -37 c-4 -26 103 -40 202 -26 41 6 77 10
79 8 2 -2 -12 -13 -30 -24 -22 -14 -51 -21 -82 -21 -40 0 -49 -3 -56 -22 -12
-33 -6 -38 47 -38 34 0 43 -3 32 -10 -8 -5 -29 -10 -47 -10 -20 0 -36 -7 -42
-17 -9 -17 -12 -16 -35 6 -21 20 -25 31 -20 56 4 26 2 34 -13 39 -10 3 -24 9
-30 12 -20 9 -16 -37 7 -73 18 -31 19 -33 2 -33 -50 0 -81 151 -34 163 10 3
18 5 20 6 2 0 2 -7 0 -16z m302 -75 c0 -22 -39 -78 -55 -78 -11 0 -9 9 10 36
14 20 25 41 25 45 0 5 5 9 10 9 6 0 10 -6 10 -12z m-280 -108 c0 -5 -2 -10 -4
-10 -3 0 -8 5 -11 10 -3 6 -1 10 4 10 6 0 11 -4 11 -10z m244 -10 c-6 -6 -19
-7 -30 -3 -17 6 -17 8 6 13 29 8 38 4 24 -10z m-178 0 c13 0 24 -5 24 -11 0
-13 -60 -2 -75 14 -7 7 -4 8 8 3 10 -3 30 -6 43 -6z m69 -10 c3 -5 -3 -10 -14
-10 -12 0 -21 5 -21 10 0 6 6 10 14 10 8 0 18 -4 21 -10z m52 4 c-3 -3 -12 -4
-19 -1 -8 3 -5 6 6 6 11 1 17 -2 13 -5z m-201 -15 c9 -16 -15 -29 -56 -29 -38
0 -69 -15 -57 -26 4 -4 22 -2 40 4 19 7 42 12 54 12 11 0 23 3 27 7 12 12 89
14 97 2 4 -7 30 -11 60 -10 62 1 92 -6 83 -20 -4 -6 -10 -6 -19 1 -8 7 -38 8
-84 4 -58 -6 -71 -10 -69 -23 2 -9 13 -17 26 -19 15 -2 20 1 17 10 -4 11 6 14
42 15 26 0 37 -1 23 -4 -14 -3 -29 -9 -35 -15 -7 -7 16 -9 73 -6 45 3 82 1 82
-3 0 -10 -20 -16 -74 -24 -25 -4 -44 -10 -42 -14 2 -3 -1 -17 -7 -31 -22 -54
-19 -67 14 -74 17 -3 64 -6 103 -6 39 0 77 -4 85 -9 22 -14 3 -31 -29 -24 -23
4 -30 2 -30 -10 0 -8 -11 -18 -25 -21 -37 -9 -30 -26 10 -26 45 0 45 -16 0
-24 -19 -4 -39 -14 -44 -24 -8 -14 -12 -15 -22 -4 -7 6 -28 12 -46 12 -25 0
-31 -4 -27 -15 4 -8 2 -15 -4 -15 -5 0 -13 -17 -17 -37 l-8 -38 -8 35 c-4 20
-4 39 2 44 14 15 11 26 -6 26 -9 0 -15 -9 -15 -25 0 -18 -5 -25 -20 -25 -11 0
-20 7 -20 16 0 8 -4 13 -9 10 -5 -4 -5 -20 1 -40 15 -49 6 -68 -27 -56 -14 5
-25 6 -25 1 0 -15 -39 -19 -51 -5 -7 9 -22 12 -41 9 -39 -7 -76 17 -90 58 -10
27 -12 28 -18 12 -4 -12 -9 7 -13 50 -6 69 0 85 34 97 5 2 16 35 26 73 9 39
21 73 26 77 15 9 -6 73 -23 73 -9 0 -29 -36 -53 -95 l-39 -95 5 -117 c2 -65 3
-118 1 -118 -2 0 -13 18 -24 40 -15 29 -20 58 -20 117 0 83 11 123 65 240 35
76 39 78 115 86 69 7 79 7 86 -4z m378 -20 c64 -11 69 -14 82 -45 16 -39 18
-64 4 -64 -5 0 -10 7 -10 15 0 34 -44 62 -110 69 -61 7 -107 26 -94 39 7 6 15
5 128 -14z m-64 -139 c0 -5 -4 -10 -10 -10 -5 0 -10 5 -10 10 0 6 5 10 10 10
6 0 10 -4 10 -10z m-200 -327 c-1 -24 -2 -26 -11 -10 -5 9 -7 22 -4 27 10 17
15 11 15 -17z"/>
<path d="M600 596 c0 -2 9 -6 20 -9 11 -3 20 -1 20 4 0 5 -9 9 -20 9 -11 0
-20 -2 -20 -4z"/>
<path d="M660 493 c0 -29 2 -29 19 5 10 18 9 22 -4 22 -10 0 -15 -9 -15 -27z"/>
<path d="M726 493 c-7 -17 14 -16 38 2 19 14 19 15 -7 13 -14 -1 -29 -8 -31
-15z"/>
<path d="M720 450 c0 -17 -5 -19 -24 -14 -18 4 -27 1 -36 -15 -10 -20 -9 -21
25 -16 44 5 58 13 51 30 -2 7 1 18 7 24 8 8 7 11 -6 11 -10 0 -17 -8 -17 -20z"/>
</g>
</svg>
