<?xml version="1.0" standalone="no"?>
<!DOCTYPE svg PUBLIC "-//W3C//DTD SVG 20010904//EN"
 "http://www.w3.org/TR/2001/REC-SVG-20010904/DTD/svg10.dtd">
<svg version="1.0" xmlns="http://www.w3.org/2000/svg"
 width="400.000000pt" height="400.000000pt" viewBox="0 0 400.000000 400.000000"
 preserveAspectRatio="xMidYMid meet">

<g transform="translate(0.000000,400.000000) scale(0.100000,-0.100000)"
fill="#000000" stroke="none">
<path d="M1780 3800 c-328 -38 -673 -186 -935 -400 -84 -69 -233 -222 -297
-306 -229 -299 -368 -712 -368 -1094 0 -184 47 -454 106 -615 221 -596 707
-1017 1339 -1161 113 -26 134 -28 370 -28 238 0 256 1 370 28 362 84 630 227
884 471 269 259 437 558 517 922 23 102 27 149 31 339 5 206 3 231 -21 361
-81 440 -307 820 -652 1096 -229 184 -472 297 -776 362 -102 22 -155 27 -308
30 -102 2 -219 0 -260 -5z m427 -21 c178 -24 359 -81 524 -165 521 -265 891
-736 1011 -1284 19 -90 22 -135 23 -315 0 -213 -6 -267 -47 -425 -54 -210
-185 -466 -339 -663 -114 -145 -264 -281 -439 -399 -320 -214 -593 -296 -986
-298 -470 -1 -964 243 -1313 650 -69 80 -211 290 -255 378 -78 155 -144 369
-167 538 -17 132 -7 423 19 539 59 259 171 500 337 721 282 375 737 654 1175
719 107 16 354 18 457 4z"/>
<path d="M1664 3565 c-10 -8 -29 -15 -41 -15 -37 0 -81 -47 -104 -110 -15 -43
-32 -67 -58 -86 -20 -15 -46 -39 -58 -53 -12 -14 -22 -21 -23 -14 0 6 5 15 10
18 6 3 10 12 10 18 0 7 -6 4 -14 -5 -10 -14 -95 -58 -111 -58 -2 0 -6 8 -8 18
-4 14 -5 14 -6 1 0 -9 -17 -33 -36 -53 -19 -21 -35 -42 -35 -47 0 -5 -11 -9
-25 -9 -17 0 -29 -9 -40 -30 -10 -19 -20 -27 -30 -24 -10 4 -18 -3 -25 -21 -6
-15 -8 -30 -5 -33 3 -3 5 0 5 6 0 7 4 12 10 12 16 0 28 -69 41 -230 6 -85 13
-157 15 -159 9 -10 3 194 -8 266 -15 99 -13 150 8 171 15 15 18 14 41 -13 l25
-30 -7 38 c-5 29 -1 44 15 67 12 17 28 30 37 30 14 0 14 -2 0 -24 -34 -52 -28
-123 14 -149 23 -15 85 19 110 60 12 19 19 37 15 40 -3 4 -6 2 -6 -4 0 -17
-51 -63 -77 -69 -31 -8 -63 20 -63 55 0 14 9 44 19 67 15 32 28 45 62 58 24
10 52 19 61 21 9 2 26 13 38 25 12 12 24 20 26 17 8 -8 -8 -63 -25 -86 -15
-20 -21 -22 -39 -12 -26 14 -52 4 -52 -20 0 -20 1 -21 41 -23 20 -1 32 7 49
31 12 18 31 33 40 33 10 0 26 3 36 7 14 5 16 2 10 -18 -4 -13 -18 -67 -31
-119 -13 -52 -27 -106 -31 -120 -4 -17 -3 -22 3 -15 10 10 33 91 74 258 25
102 39 128 88 160 23 15 41 33 41 39 0 7 -6 4 -12 -5 -13 -17 -67 -41 -75 -33
-14 13 63 128 98 146 13 8 15 5 12 -14 -4 -18 1 -26 18 -31 32 -10 74 37 59
66 -13 23 -58 25 -86 4z m64 -32 c-2 -9 -8 -18 -15 -20 -7 -3 -9 3 -6 16 6 25
26 28 21 4z m-160 -87 c-18 -36 -39 -66 -46 -66 -15 0 -10 22 15 78 14 30 52
66 60 58 2 -2 -11 -33 -29 -70z m-33 -118 c-10 -34 -41 -62 -60 -54 -12 4 -14
12 -9 28 10 35 24 48 51 48 21 0 23 -3 18 -22z m-165 -128 c0 -5 -4 -10 -10
-10 -5 0 -10 5 -10 10 0 6 5 10 10 10 6 0 10 -4 10 -10z"/>
<path d="M2036 3551 c-13 -24 -13 -30 -2 -34 8 -3 22 4 33 15 13 15 15 22 5
25 -6 3 -10 9 -6 14 3 5 1 9 -5 9 -6 0 -17 -13 -25 -29z"/>
<path d="M2333 3573 c9 -2 23 -2 30 0 6 3 -1 5 -18 5 -16 0 -22 -2 -12 -5z"/>
<path d="M2000 3538 c0 -25 3 -29 10 -18 13 20 13 50 0 50 -5 0 -10 -15 -10
-32z"/>
<path d="M2255 3549 c-22 -12 -56 -37 -76 -56 l-37 -35 -85 7 c-87 7 -187 -11
-203 -37 -5 -8 -2 -9 12 -3 10 4 32 10 48 13 l30 5 -22 -28 c-39 -50 -19 -79
39 -55 23 10 33 10 42 1 6 -6 19 -11 29 -11 17 0 15 -5 -11 -42 -16 -24 -48
-61 -70 -83 -23 -21 -41 -43 -41 -48 0 -15 58 44 142 145 72 87 110 119 124
105 5 -5 -79 -115 -188 -243 -37 -45 -68 -85 -68 -88 0 -8 70 67 159 172 68
79 72 81 161 57 30 -8 66 -15 79 -15 20 0 21 2 11 15 -10 13 -6 18 31 35 24
11 38 20 32 20 -7 0 -13 6 -13 14 0 17 -22 26 -60 26 -16 0 -32 5 -35 10 -3 6
-17 7 -31 4 -13 -3 -31 -1 -39 6 -8 7 -24 9 -37 5 -20 -6 -19 -3 12 30 19 21
55 50 80 66 52 33 43 39 -15 8z m-256 -139 c-23 -31 -45 -44 -60 -34 -27 16
12 64 53 64 l29 0 -22 -30z m111 21 c0 -14 -61 -62 -74 -58 -18 6 -18 33 -1
51 17 17 75 22 75 7z m155 -22 c13 -20 -26 -49 -67 -49 -45 0 -43 11 6 41 35
21 52 24 61 8z m78 -16 c12 -11 -35 -53 -58 -53 -34 0 -36 10 -7 36 27 23 53
30 65 17z"/>
<path d="M1352 3455 c-29 -25 -82 -119 -82 -147 0 -7 13 15 29 48 32 67 55 92
49 53 -3 -21 1 -24 27 -24 55 0 75 83 23 93 -9 2 -29 -9 -46 -23z m56 -27 c-2
-14 -11 -24 -23 -26 -15 -2 -17 -1 -6 6 8 6 11 17 8 26 -4 10 -1 16 9 16 10 0
14 -8 12 -22z"/>
<path d="M2524 3451 c-66 -30 -61 -42 6 -14 65 28 79 27 58 -6 -11 -18 -10
-23 5 -38 23 -24 71 -7 75 27 8 50 -67 66 -144 31z m126 -31 c0 -15 -26 -23
-41 -14 -9 5 -7 10 7 15 27 11 34 10 34 -1z"/>
<path d="M2432 3394 c-17 -12 -21 -19 -13 -27 8 -8 3 -19 -16 -39 -33 -35 -25
-36 23 -3 20 14 45 25 56 25 29 0 34 -29 9 -53 -22 -22 -22 -22 -37 -3 -10 15
-17 17 -25 9 -17 -17 -1 -33 32 -33 32 0 79 38 79 64 0 18 -28 35 -55 33 -12
-1 -21 6 -24 21 -6 21 -7 22 -29 6z"/>
<path d="M2688 3363 c7 -3 16 -2 19 1 4 3 -2 6 -13 5 -11 0 -14 -3 -6 -6z"/>
<path d="M2598 3340 c-41 -22 -68 -55 -68 -83 0 -9 -8 -20 -17 -24 -70 -24
-69 -92 1 -117 27 -10 68 20 64 47 -4 27 -45 36 -54 12 -9 -21 2 -31 19 -17
16 14 28 6 20 -14 -14 -37 -86 6 -76 46 6 22 50 50 79 50 16 0 16 1 0 19 -16
18 -15 20 16 46 18 16 47 34 63 41 22 10 25 13 10 13 -11 0 -37 -9 -57 -19z"/>
<path d="M1597 3314 c-8 -8 1 -24 14 -24 5 0 9 7 9 15 0 15 -12 20 -23 9z"/>
<path d="M1120 3289 c0 -31 15 -53 29 -45 6 4 11 19 11 33 0 15 -3 23 -7 20
-3 -4 -12 -2 -20 4 -10 9 -13 6 -13 -12z"/>
<path d="M2668 3263 c22 -9 12 -23 -28 -39 -22 -9 -40 -20 -40 -24 0 -4 14
-13 31 -21 18 -7 53 -30 80 -51 51 -40 72 -48 63 -23 -5 11 1 15 18 15 14 0
33 9 44 21 19 21 18 21 -5 40 -13 10 -29 19 -36 19 -17 0 -27 27 -14 36 17 10
136 17 156 10 17 -7 17 -8 1 -17 -24 -13 -23 -32 2 -54 28 -26 75 -10 75 24 0
43 -45 65 -126 64 -40 -1 -92 -7 -117 -14 -39 -11 -45 -10 -54 4 -5 10 -21 17
-36 16 -15 0 -21 -3 -14 -6z m82 -58 c0 -6 -12 -17 -26 -24 -21 -9 -33 -9 -55
1 -38 17 -37 24 9 35 43 11 72 6 72 -12z m240 -4 c0 -14 -18 -23 -31 -15 -8 4
-7 9 2 15 18 11 29 11 29 0z m-173 -38 c6 -19 -50 -41 -75 -30 -28 13 -28 21
1 35 27 14 69 11 74 -5z"/>
<path d="M1090 3253 c1 -4 7 -19 16 -33 l14 -25 -2 29 c-2 16 -9 31 -15 34 -7
2 -13 0 -13 -5z"/>
<path d="M960 3174 c0 -1 5 -15 10 -29 9 -24 8 -26 -10 -20 -24 7 -25 -2 -5
-29 14 -18 15 -18 15 -2 0 10 8 20 18 23 11 2 19 15 20 32 2 24 -2 29 -23 29
-14 0 -25 -2 -25 -4z"/>
<path d="M2840 3092 c-25 -21 -19 -47 17 -65 23 -13 21 -14 -44 -37 -37 -13
-81 -30 -98 -37 l-30 -13 38 6 c21 4 84 21 139 39 98 32 137 34 145 8 4 -11
-28 -23 -64 -23 -13 0 -23 -5 -23 -10 0 -6 25 -9 64 -8 42 2 69 -1 77 -9 11
-11 8 -13 -11 -13 -13 0 -32 -8 -42 -17 -18 -16 -18 -17 8 -44 l26 -27 -89 -7
c-93 -7 -119 -12 -110 -21 3 -3 63 0 134 7 155 15 160 15 185 -7 18 -18 18
-18 -12 -42 -17 -13 -29 -31 -28 -40 2 -14 -8 -18 -52 -22 l-55 -6 87 -8 c47
-4 90 -6 95 -3 4 3 24 -1 42 -9 55 -23 26 -34 -115 -43 l-129 -8 97 -2 98 -1
20 -37 c34 -66 64 -95 53 -53 -5 18 -3 19 21 10 62 -23 82 5 36 51 -16 16 -27
36 -24 44 3 8 -5 21 -20 30 -20 13 -24 23 -20 40 4 18 -1 27 -20 40 -14 10
-26 23 -26 30 0 6 -9 20 -20 30 -11 10 -18 20 -15 23 8 9 -58 85 -91 104 -18
10 -34 28 -37 39 -3 11 -15 23 -26 26 -12 3 -21 9 -21 14 0 14 68 22 138 16
47 -3 60 -2 43 5 -35 13 -137 12 -209 -2 -71 -14 -112 -8 -112 18 0 23 19 42
42 42 13 0 18 -8 18 -25 0 -27 17 -34 26 -10 16 41 -63 62 -106 27z m268 -198
c33 -23 28 -44 -11 -44 -41 0 -73 21 -64 44 8 20 46 21 75 0z m105 -138 c30
-23 20 -36 -28 -36 -25 0 -45 2 -45 5 0 6 43 45 49 45 3 0 14 -7 24 -14z m73
-147 c39 -24 36 -39 -6 -39 -26 0 -60 29 -60 52 0 15 32 8 66 -13z"/>
<path d="M3020 3100 c0 -5 14 -10 30 -10 17 0 30 5 30 10 0 6 -13 10 -30 10
-16 0 -30 -4 -30 -10z"/>
<path d="M767 3073 c-4 -3 -7 -11 -7 -17 0 -6 5 -5 12 2 6 6 9 14 7 17 -3 3
-9 2 -12 -2z"/>
<path d="M981 3026 c-24 -24 -41 -50 -39 -58 3 -9 16 -1 38 24 18 21 37 35 42
32 14 -9 9 -81 -8 -95 -16 -13 -25 -6 -37 26 -8 21 -19 -5 -13 -30 9 -34 32
-42 56 -20 11 10 22 16 24 14 2 -2 9 -47 16 -99 6 -52 15 -106 18 -120 l6 -25
4 24 c2 14 -6 85 -18 159 -12 73 -20 147 -18 162 2 16 1 27 -4 24 -4 -3 -8 2
-8 10 0 25 -13 19 -59 -28z"/>
<path d="M1143 3058 c2 -7 10 -13 17 -13 7 0 15 6 18 13 2 7 -5 12 -18 12 -13
0 -20 -5 -17 -12z"/>
<path d="M3130 2990 c-11 -7 -5 -10 23 -10 20 0 37 5 37 10 0 13 -40 13 -60 0z"/>
<path d="M721 2904 c-1 -67 13 -111 61 -187 34 -54 46 -56 27 -4 -22 61 13
119 41 68 14 -27 13 -41 -5 -41 -8 0 -15 -7 -15 -15 0 -24 24 -17 37 12 10 21
10 32 -3 59 -21 44 -61 48 -70 7 -3 -16 -7 -32 -9 -38 -5 -20 -48 91 -55 145
l-7 55 -2 -61z"/>
<path d="M896 2934 c-10 -25 -7 -32 11 -30 18 1 42 -48 30 -61 -4 -3 -21 4
-38 16 -17 12 -37 20 -45 17 -19 -7 -18 -26 2 -26 9 0 27 -9 40 -19 13 -11 32
-17 42 -15 14 4 21 -11 42 -88 13 -51 26 -86 28 -77 4 21 -46 225 -64 260 -7
15 -10 29 -7 33 4 3 -3 6 -14 6 -12 0 -24 -7 -27 -16z"/>
<path d="M1815 2810 c-268 -69 -481 -251 -578 -493 -60 -149 -73 -370 -33
-522 70 -259 275 -479 529 -566 408 -140 853 57 1025 453 102 236 90 483 -34
719 -105 200 -310 356 -537 409 -113 26 -272 26 -372 0z m183 -92 c-6 -18 -28
-21 -28 -4 0 9 7 16 16 16 9 0 14 -5 12 -12z m-113 -118 c-5 -8 -11 -8 -17 -2
-6 6 -7 16 -3 22 5 8 11 8 17 2 6 -6 7 -16 3 -22z m225 15 c0 -8 -7 -15 -15
-15 -16 0 -20 12 -8 23 11 12 23 8 23 -8z m-392 -166 c-16 -10 -33 5 -23 21 5
8 11 8 21 -1 12 -10 12 -14 2 -20z m280 -3 c7 13 8 -2 5 -51 -4 -43 -2 -66 4
-62 20 12 65 86 58 96 -3 6 -2 11 4 11 23 0 20 -22 -12 -67 -35 -50 -57 -102
-57 -136 0 -18 2 -17 21 7 12 15 29 25 42 25 22 -2 22 -2 -1 -6 -26 -5 -43
-33 -52 -85 -8 -41 -2 -45 33 -27 19 10 18 8 -4 -15 -15 -14 -29 -38 -31 -51
-6 -29 -1 -30 26 -10 22 16 82 20 90 6 3 -4 -7 -7 -22 -5 -29 3 -92 -28 -92
-46 0 -5 8 -10 17 -10 15 0 15 -1 -2 -14 -17 -12 -18 -29 -16 -242 1 -126 7
-247 12 -269 15 -58 53 -93 108 -101 35 -5 41 -9 26 -14 -11 -4 -36 -5 -55 -2
-29 4 -33 2 -22 -9 23 -25 12 -32 -14 -8 -37 35 -121 34 -159 -1 l-27 -25 7
23 c6 20 4 23 -17 22 -53 -5 -61 2 -18 15 98 31 110 73 110 393 0 180 -2 214
-15 218 -8 4 -15 10 -15 15 0 4 7 6 15 3 8 -4 15 -1 15 5 0 17 -50 45 -81 46
-44 1 -47 15 -3 15 22 0 50 -7 62 -16 21 -14 22 -14 22 7 0 13 -12 36 -27 52
-24 25 -25 28 -6 18 37 -19 41 -14 31 37 -12 55 -22 69 -51 75 l-22 4 22 2
c12 0 32 -9 44 -21 l21 -23 -7 35 c-9 40 -29 82 -60 125 -12 17 -25 39 -29 49
-5 16 -4 17 9 6 8 -7 15 -18 15 -24 0 -6 17 -29 36 -51 l36 -40 -5 60 c-3 33
-8 69 -12 80 -4 12 1 9 13 -9 18 -26 21 -27 30 -10z m278 23 c3 -6 2 -15 -2
-19 -12 -12 -38 5 -30 19 9 14 23 14 32 0z m-431 -108 c3 -5 1 -12 -5 -16 -5
-3 -10 1 -10 9 0 18 6 21 15 7z m295 -13 c0 -6 -6 -5 -15 2 -8 7 -15 14 -15
16 0 2 7 1 15 -2 8 -4 15 -11 15 -16z m-363 -30 c-3 -8 -6 -5 -6 6 -1 11 2 17
5 13 3 -3 4 -12 1 -19z m-217 -19 c0 -5 -9 -9 -20 -9 -19 0 -26 11 -14 23 8 8
34 -3 34 -14z m610 -29 c6 0 10 8 11 18 0 9 3 12 5 5 8 -19 -26 -82 -50 -95
-20 -10 -20 -10 2 11 26 26 26 22 7 68 -19 45 -19 56 1 21 8 -16 19 -28 24
-28z m280 32 c0 -14 -11 -21 -26 -15 -21 8 -17 23 6 23 11 0 20 -4 20 -8z
m-636 -23 c18 15 22 1 5 -16 -16 -16 4 -47 49 -78 20 -14 32 -25 27 -25 -21 0
-85 52 -100 80 -17 32 -21 65 -6 41 8 -12 12 -12 25 -2z m-110 -34 c3 -8 1
-15 -4 -15 -6 0 -10 7 -10 15 0 8 2 15 4 15 2 0 6 -7 10 -15z m623 -57 c-3 -8
-6 -5 -6 6 -1 11 2 17 5 13 3 -3 4 -12 1 -19z m-667 -18 c5 0 11 6 13 13 3 6
6 -1 6 -16 1 -32 45 -81 66 -73 8 3 29 -2 47 -11 21 -11 27 -18 18 -21 -8 -3
-23 -9 -32 -14 -13 -6 -16 -5 -13 5 4 8 -8 18 -29 25 -41 15 -97 77 -95 107 1
17 2 17 6 3 2 -10 8 -18 13 -18z m544 -5 c3 -9 0 -15 -9 -15 -8 0 -15 7 -15
15 0 8 4 15 9 15 5 0 11 -7 15 -15z m100 -32 c-17 -24 -56 -49 -98 -66 -16 -6
43 -74 76 -88 27 -11 32 -10 45 7 14 18 15 18 8 -6 -7 -23 -22 -39 -35 -40 -3
0 -32 27 -65 60 -33 33 -65 60 -72 60 -22 0 -14 18 9 22 12 2 28 14 35 28 12
24 13 25 13 3 0 -13 3 -23 8 -23 18 0 50 31 62 60 9 22 16 28 23 21 8 -8 5
-19 -9 -38z m-514 27 c0 -5 -4 -10 -10 -10 -5 0 -10 5 -10 10 0 6 5 10 10 10
6 0 10 -4 10 -10z m-151 -104 c7 -8 8 -17 3 -20 -6 -3 -12 3 -15 14 -6 24 -4
25 12 6z m708 -33 c-4 -17 -4 -17 -12 0 -4 9 -4 25 0 35 8 16 8 16 12 0 3 -10
3 -26 0 -35z m-437 -3 c-20 -13 -43 -13 -35 0 3 6 16 10 28 10 18 0 19 -2 7
-10z m185 0 c3 -5 -1 -10 -9 -10 -8 0 -18 5 -21 10 -3 6 1 10 9 10 8 0 18 -4
21 -10z m-424 -50 c6 0 20 5 32 11 l22 12 -22 -25 c-13 -13 -23 -33 -24 -44 0
-17 -1 -16 -9 4 -6 15 -18 22 -35 22 -14 0 -25 4 -25 10 0 5 7 7 16 3 13 -5
15 -2 9 18 -7 22 -7 22 9 6 10 -9 22 -17 27 -17z m726 -7 c-3 -3 -11 -2 -17 2
-9 6 -9 10 1 16 14 8 27 -7 16 -18z m-802 7 c-3 -5 -13 -10 -21 -10 -8 0 -12
5 -9 10 3 6 13 10 21 10 8 0 12 -4 9 -10z m299 -6 c3 -8 2 -12 -4 -9 -6 3 -10
10 -10 16 0 14 7 11 14 -7z m-64 -13 c0 -6 -4 -13 -10 -16 -5 -3 -10 1 -10 9
0 9 5 16 10 16 6 0 10 -4 10 -9z m333 -11 c3 -11 1 -18 -4 -14 -5 3 -9 12 -9
20 0 20 7 17 13 -6z m68 -570 c10 -6 19 -16 19 -22 0 -7 -7 -5 -17 4 -10 9
-25 18 -33 21 -10 4 -11 6 -2 6 7 1 22 -4 33 -9z"/>
<path d="M703 2679 c-43 -66 -55 -92 -67 -144 -6 -27 -5 -28 8 -12 14 18 15
18 27 -5 6 -13 17 -26 22 -30 18 -11 47 11 47 37 0 13 11 36 26 50 l25 25 31
-65 c49 -106 44 -67 -7 46 -25 57 -52 117 -59 133 l-12 29 -41 -64z m56 -22
c13 -38 6 -67 -15 -67 -23 0 -37 50 -23 77 17 31 25 29 38 -10z m-31 -125 c-5
-26 -30 -20 -47 10 -13 22 -13 31 -2 55 l13 28 20 -38 c10 -21 18 -46 16 -55z"/>
<path d="M3338 2652 c11 -15 24 -43 31 -62 14 -42 38 -76 47 -67 4 4 2 12 -3
19 -5 7 -13 21 -16 31 -6 17 -3 18 35 13 l43 -6 -33 15 c-18 9 -37 13 -43 10
-5 -4 -18 9 -29 29 -12 19 -28 37 -36 40 -12 5 -11 0 4 -22z"/>
<path d="M518 2553 c-23 -6 -23 -16 0 -36 22 -20 42 -22 42 -4 0 22 -24 44
-42 40z"/>
<path d="M3071 2510 c9 -5 65 -16 125 -25 131 -19 135 -20 168 -46 31 -24 33
-45 6 -54 -27 -8 -60 11 -57 35 1 10 -2 19 -8 19 -5 1 -10 -9 -10 -21 0 -17
12 -29 44 -45 24 -12 50 -31 58 -42 17 -25 45 -102 39 -109 -3 -2 -17 10 -33
27 -15 17 -45 38 -65 46 -35 14 -38 14 -65 -9 -24 -21 -27 -31 -27 -80 0 -59
16 -92 66 -129 47 -35 90 -1 65 51 -16 34 -51 36 -55 5 -2 -16 2 -23 12 -23 9
0 15 3 14 8 -2 4 2 9 7 12 6 3 11 -5 13 -18 8 -51 -63 -31 -93 27 -9 19 -13
42 -9 63 17 88 64 102 126 38 36 -38 38 -45 38 -103 0 -63 23 -126 50 -135 7
-3 3 9 -10 25 -19 27 -21 37 -14 101 3 40 11 72 16 72 12 0 102 -91 117 -118
11 -20 10 -21 -18 -16 -27 6 -31 3 -37 -22 -6 -22 -2 -32 21 -51 32 -28 45
-26 63 10 12 24 10 32 -13 76 -15 26 -51 69 -81 94 -66 55 -130 168 -111 198
8 13 7 23 -6 43 -10 14 -22 26 -27 26 -14 0 -12 28 3 33 8 3 5 12 -11 28 -15
16 -21 18 -17 7 11 -29 -19 -28 -265 6 -24 4 -30 2 -19 -4z m504 -480 c4 -6
11 -7 17 -4 6 4 9 1 6 -7 -7 -20 -42 -17 -46 4 -4 18 13 24 23 7z"/>
<path d="M500 2490 c0 -12 42 -31 50 -23 6 5 -30 33 -42 33 -4 0 -8 -5 -8 -10z"/>
<path d="M613 2473 c-8 -3 -12 -20 -12 -41 1 -24 3 -29 6 -14 6 31 37 28 59
-5 l18 -28 6 24 c3 14 11 26 17 28 19 7 80 -55 113 -113 34 -59 51 -74 24 -21
-34 66 -84 134 -109 147 -22 12 -30 12 -48 1 -18 -12 -23 -11 -38 8 -9 11 -19
21 -21 20 -1 0 -9 -3 -15 -6z"/>
<path d="M3460 2408 c0 -12 17 -18 34 -12 25 10 19 24 -9 22 -14 -1 -25 -6
-25 -10z"/>
<path d="M588 2379 c-12 -6 -18 -22 -18 -44 0 -19 -5 -37 -11 -41 -6 -3 -9
-19 -5 -35 3 -16 1 -29 -4 -29 -6 0 -10 -15 -10 -32 l0 -33 -55 57 c-30 31
-55 51 -55 45 0 -7 41 -51 91 -100 91 -89 106 -119 63 -125 -27 -4 -60 26 -45
41 15 15 14 27 -4 27 -22 0 -19 -42 5 -67 41 -44 90 -37 90 13 0 24 23 9 189
-120 11 -8 13 -8 8 1 -9 14 -126 109 -204 166 -48 35 -73 70 -59 84 3 4 16 -3
29 -14 24 -22 47 -37 47 -30 0 2 -16 20 -35 40 -21 22 -35 46 -35 62 0 30 10
31 41 6 19 -16 21 -21 11 -34 -14 -17 0 -33 18 -22 20 12 10 45 -25 84 -19 21
-35 43 -35 49 0 20 20 23 52 8 17 -9 32 -15 34 -14 2 3 -54 68 -58 68 -2 0
-11 -5 -20 -11z"/>
<path d="M3470 2374 c0 -10 33 -33 48 -34 7 0 10 5 7 10 -3 6 1 10 10 10 9 0
13 5 10 10 -7 11 -75 14 -75 4z"/>
<path d="M412 2340 c0 -14 2 -19 5 -12 2 6 2 18 0 25 -3 6 -5 1 -5 -13z"/>
<path d="M635 2301 c-3 -5 -1 -12 5 -16 12 -7 30 2 30 16 0 12 -27 12 -35 0z"/>
<path d="M430 2192 c0 -7 -8 -12 -17 -12 -15 0 -14 -4 6 -19 16 -12 20 -20 12
-25 -15 -10 -4 -26 17 -26 23 0 23 54 0 77 -11 11 -18 13 -18 5z"/>
<path d="M3161 1835 c24 -33 82 -107 131 -164 78 -93 105 -141 79 -141 -5 0
-21 16 -36 36 -37 48 -44 36 -11 -20 14 -24 26 -51 26 -60 0 -26 -21 -29 -43
-7 -21 21 -21 21 -2 36 17 13 18 16 5 25 -11 7 -18 5 -27 -6 -13 -18 -1 -65
23 -85 18 -15 18 -58 0 -65 -19 -7 -58 14 -53 29 2 7 9 13 15 13 23 3 24 4 12
19 -16 20 -40 2 -40 -30 0 -26 36 -75 55 -75 18 0 36 24 39 56 2 14 10 31 19
36 10 5 17 20 17 33 0 14 5 25 10 25 6 0 10 11 10 25 0 14 4 25 8 25 11 0 61
-92 79 -144 l13 -41 -5 43 c-7 52 -43 128 -85 175 -52 60 -65 117 -26 117 34
0 53 -26 38 -51 -16 -24 -15 -29 3 -29 25 0 19 63 -8 88 -34 32 -65 29 -74 -9
l-8 -30 -75 87 c-116 135 -136 155 -89 89z"/>
<path d="M529 1742 c18 -25 45 -175 33 -187 -16 -15 -152 91 -152 118 0 22 18
40 34 34 21 -8 21 -25 0 -23 -25 2 -28 -21 -4 -29 49 -16 52 52 4 74 -24 10
-30 9 -46 -7 -15 -14 -17 -24 -10 -43 17 -44 94 -112 147 -129 37 -12 99 -93
90 -119 -3 -11 6 -28 24 -47 19 -19 26 -33 20 -40 -6 -7 -4 -16 7 -25 13 -10
17 -10 24 1 6 10 37 11 151 6 211 -11 176 1 -59 20 -59 5 -90 13 -108 26 -42
34 -21 73 26 48 15 -8 19 -17 15 -32 -5 -15 -3 -19 11 -16 48 9 6 62 -60 76
-33 6 -45 15 -63 47 -30 53 -29 62 6 33 66 -56 142 -60 168 -8 20 40 -15 108
-69 136 -49 25 -96 -19 -62 -57 21 -23 34 -24 34 -4 0 8 -7 15 -15 15 -22 0
-18 28 5 35 30 9 66 -18 80 -60 22 -68 -30 -106 -98 -71 -52 27 -75 62 -84
127 -8 62 -32 114 -55 123 -8 3 -5 -6 6 -22z"/>
<path d="M3474 1605 c3 -10 2 -21 -4 -25 -7 -4 -6 -15 3 -33 12 -27 27 -36 27
-17 0 6 8 10 18 10 14 1 14 3 -5 19 -27 22 -29 31 -8 31 8 0 15 5 15 10 0 6
-4 10 -9 10 -5 0 -17 3 -27 7 -14 5 -16 3 -10 -12z"/>
<path d="M3091 1432 c-2 -72 57 -148 105 -136 19 5 24 1 30 -21 3 -14 2 -36
-4 -48 -10 -21 -11 -21 -22 10 -20 56 -62 52 -74 -7 -3 -17 -12 -30 -20 -30
-7 0 -17 -7 -20 -16 -9 -24 -21 -9 -46 58 -13 35 -25 58 -27 52 -2 -6 12 -56
32 -110 37 -106 45 -157 21 -148 -8 3 -17 13 -20 22 -48 145 -95 269 -91 241
3 -20 21 -83 40 -140 38 -114 43 -160 20 -179 -12 -10 -18 -10 -30 0 -20 17
-20 64 0 57 19 -8 26 5 14 23 -8 13 -13 11 -30 -9 -17 -20 -19 -33 -14 -75 8
-62 -12 -100 -39 -77 -21 18 -22 65 -1 57 10 -4 15 1 15 14 0 26 -26 26 -40 1
-5 -11 -10 -39 -10 -63 0 -42 1 -44 28 -42 15 1 30 2 33 3 3 0 13 17 22 36 11
24 24 35 38 35 14 0 24 10 32 30 6 17 18 30 27 30 21 1 152 159 170 206 8 22
25 50 38 62 23 23 28 47 12 57 -5 3 -10 -3 -10 -14 0 -35 -30 -24 -47 17 -15
35 -16 36 -24 15 -5 -13 -13 -23 -18 -23 -24 0 -63 49 -76 95 -12 45 -13 47
-14 17z m97 -216 c8 -19 7 -29 -5 -46 -15 -22 -17 -22 -30 -5 -14 20 -17 57
-6 68 13 14 30 6 41 -17z m-54 -68 c15 -21 14 -24 -4 -43 -18 -17 -22 -18 -30
-5 -11 17 -13 54 -3 63 11 12 21 8 37 -15z"/>
<path d="M524 1435 c3 -10 -1 -15 -12 -15 -16 -1 -15 -2 1 -11 10 -6 25 -8 33
-5 17 7 18 -6 2 -22 -14 -14 4 -16 37 -3 19 8 19 8 0 19 -11 6 -17 14 -13 18
4 4 -4 13 -18 21 -33 17 -37 16 -30 -2z"/>
<path d="M2941 1354 c0 -11 3 -14 6 -6 3 7 2 16 -1 19 -3 4 -6 -2 -5 -13z"/>
<path d="M3001 1324 c0 -11 3 -14 6 -6 3 7 2 16 -1 19 -3 4 -6 -2 -5 -13z"/>
<path d="M715 1280 c-7 -23 3 -48 26 -61 11 -5 19 -19 19 -30 0 -12 12 -27 30
-37 32 -18 36 -27 19 -37 -15 -10 -45 21 -85 87 -33 54 -69 87 -81 75 -2 -3 4
-10 15 -16 10 -6 25 -25 33 -43 20 -51 76 -105 123 -120 29 -10 41 -18 39 -32
0 -10 24 -43 57 -76 59 -59 101 -83 108 -61 2 6 14 11 27 11 12 0 28 7 35 15
10 13 10 19 -5 35 -10 11 -23 20 -29 20 -16 0 -48 60 -33 61 7 0 73 9 147 19
l135 19 -105 -5 c-58 -3 -132 -10 -165 -15 -89 -13 -151 -11 -164 5 -14 16
-11 17 187 37 61 6 112 14 112 16 0 3 -51 2 -113 -2 -127 -8 -121 -10 -170 77
-29 50 -67 84 -77 68 -3 -5 -21 -5 -42 -1 -31 7 -38 6 -43 -9z m121 -37 c22
-29 17 -34 -28 -28 -47 6 -75 26 -63 45 11 17 74 5 91 -17z m49 -73 c16 -16
27 -30 24 -31 -2 0 -13 -2 -23 -4 -23 -4 -80 18 -91 35 -4 7 -1 16 6 21 26 16
55 9 84 -21z m95 -125 c16 -20 4 -35 -29 -35 -29 0 -51 16 -51 37 0 18 64 17
80 -2z m54 -51 c25 -9 19 -33 -10 -40 -25 -6 -74 12 -74 27 0 4 12 10 28 12
15 2 30 5 34 6 3 0 13 -2 22 -5z"/>
<path d="M3330 1256 c0 -8 -6 -16 -13 -19 -9 -3 -12 -16 -9 -37 3 -21 8 -28
14 -22 6 6 17 8 24 5 19 -7 18 11 -1 27 -21 18 -19 32 5 25 11 -3 20 -3 20 2
0 4 -9 14 -20 21 -16 10 -20 10 -20 -2z"/>
<path d="M630 1200 c0 -8 25 -20 41 -20 20 0 7 18 -16 22 -14 3 -25 2 -25 -2z"/>
<path d="M1180 949 c-61 -22 -116 -37 -132 -34 -47 7 -38 -20 24 -71 77 -64
133 -97 155 -91 16 4 15 6 -4 12 -27 9 -30 25 -5 25 21 0 42 18 42 37 0 7 -12
19 -27 28 -16 8 -41 25 -57 39 l-29 24 34 15 c19 8 50 20 69 27 35 13 63 31
45 29 -6 -1 -57 -19 -115 -40z m-31 -58 c8 -5 11 -16 8 -25 -8 -20 -55 -20
-82 0 -17 13 -18 16 -5 24 19 12 61 12 79 1z m76 -51 c11 -17 -15 -40 -44 -40
-26 0 -51 16 -51 31 0 16 86 23 95 9z"/>
<path d="M2690 892 l0 -72 -51 -28 c-66 -35 -113 -73 -101 -81 13 -8 3 -61
-11 -61 -6 0 -2 -7 10 -15 18 -13 26 -13 43 -3 11 7 20 16 20 20 0 5 11 8 25
8 16 0 32 11 47 30 14 20 28 28 39 25 21 -7 37 14 19 25 -8 5 -16 47 -21 111
-5 56 -11 105 -14 107 -3 3 -5 -27 -5 -66z m-12 -169 c-7 -16 -20 -28 -28 -28
-26 0 -22 41 7 76 l28 33 3 -27 c2 -15 -3 -39 -10 -54z m-65 -5 c-7 -40 -33
-72 -46 -59 -13 13 2 69 21 81 28 16 32 12 25 -22z"/>
<path d="M2517 859 c-36 -179 -44 -211 -64 -237 -23 -30 -48 -40 -55 -20 -9
23 10 58 33 58 21 0 22 21 2 27 -29 10 -82 -94 -60 -116 17 -17 33 -13 65 14
19 16 32 21 39 14 6 -6 16 -2 28 11 16 18 16 20 2 20 -12 0 -15 7 -12 28 3 15
14 80 26 145 24 138 21 179 -4 56z"/>
<path d="M1425 901 c-114 -44 -146 -72 -125 -111 8 -15 4 -20 -20 -30 -54 -22
-35 -60 30 -60 22 0 29 -5 32 -22 2 -17 11 -24 33 -26 16 -2 35 -12 43 -23 7
-10 25 -19 39 -19 14 0 32 -8 39 -17 11 -16 7 -22 -34 -50 -25 -18 -52 -33
-60 -33 -9 0 -13 -3 -9 -6 12 -12 64 14 142 70 62 44 86 56 110 54 27 -3 30
-6 28 -36 -1 -32 0 -33 18 -16 25 22 25 61 0 69 -11 3 -32 3 -48 0 -23 -6 -13
8 65 85 52 50 92 93 90 95 -2 2 -58 -45 -125 -106 -67 -60 -130 -109 -140
-109 -15 1 -13 5 11 26 35 31 27 44 -10 15 -35 -28 -84 -29 -84 -1 0 10 9 24
19 30 26 14 31 13 31 -6 0 -9 5 -14 12 -12 20 7 20 26 0 37 -16 8 -30 5 -66
-14 -46 -24 -76 -24 -76 0 0 24 30 40 50 27 20 -12 36 0 25 18 -9 14 -36 12
-70 -6 -31 -16 -95 -12 -95 7 0 5 18 16 40 25 40 16 40 16 19 33 -41 33 -4 64
134 116 26 10 47 19 47 21 0 8 -28 1 -95 -25z"/>
<path d="M2830 915 c-1 -5 -1 -23 0 -38 4 -59 -38 -113 -54 -71 -10 27 -7 44
9 44 8 0 15 9 15 20 0 11 -4 20 -8 20 -21 0 -40 -39 -44 -85 -3 -48 -2 -50 24
-52 22 -2 31 4 43 27 18 35 23 36 41 13 12 -17 13 -16 14 4 0 12 3 29 6 37 4
12 2 15 -9 10 -12 -4 -18 5 -25 38 -6 24 -11 39 -12 33z"/>
<path d="M2043 668 c-71 -130 -81 -143 -107 -145 -16 -1 -34 -7 -39 -12 -7 -7
2 -9 31 -7 23 3 45 0 48 -6 8 -13 -61 -83 -97 -99 -37 -15 -81 -4 -77 19 2 9
12 18 23 20 16 3 18 1 8 -9 -18 -19 -16 -29 6 -29 25 0 36 30 17 48 -31 32
-95 -13 -81 -57 7 -23 49 -35 74 -21 11 5 33 7 50 4 39 -8 71 12 115 73 26 36
40 46 65 48 18 2 38 8 44 15 9 10 7 11 -10 5 -17 -5 -23 -2 -23 9 0 8 4 17 10
21 5 3 19 20 32 38 13 19 16 27 6 19 -11 -9 -18 -10 -23 -2 -9 14 -58 13 -73
-2 -24 -24 -12 13 38 112 28 55 48 100 46 100 -3 0 -40 -64 -83 -142z m43 -89
c3 -6 1 -22 -7 -35 -10 -19 -20 -24 -51 -24 -40 0 -45 5 -25 31 26 33 70 48
83 28z m-62 -87 c6 -11 -49 -79 -76 -93 -36 -19 -31 -1 13 50 45 51 54 57 63
43z"/>
<path d="M2856 740 c-20 -94 -38 -122 -49 -80 -7 26 -31 25 -57 -2 -23 -25
-24 -32 -10 -59 16 -29 55 -24 80 11 24 34 53 124 47 148 -2 10 -7 2 -11 -18z
m-78 -105 c0 -26 -12 -33 -23 -15 -4 6 -1 17 5 25 16 20 18 19 18 -10z"/>
<path d="M2222 715 c-42 -36 -52 -83 -22 -107 21 -17 25 -17 38 -4 19 19 8 46
-19 46 -15 0 -19 4 -15 16 3 9 6 17 6 20 0 12 60 31 83 27 56 -11 59 -78 7
-128 -20 -19 -45 -30 -81 -36 -82 -13 -85 -29 -6 -29 37 0 67 -3 67 -6 0 -3
-5 -15 -10 -27 -10 -21 -10 -21 2 -2 7 11 28 35 46 52 32 32 32 33 7 23 -14
-5 -28 -10 -31 -10 -2 0 12 21 31 46 22 28 35 57 35 75 0 66 -81 92 -138 44z
m8 -91 c0 -8 -4 -12 -10 -9 -5 3 -10 10 -10 16 0 5 5 9 10 9 6 0 10 -7 10 -16z"/>
<path d="M1178 683 c-18 -4 -21 -43 -3 -43 15 1 45 26 45 39 0 11 -11 12 -42
4z"/>
<path d="M1220 650 c-6 -11 -7 -20 -2 -20 10 0 32 21 32 32 0 16 -19 8 -30
-12z"/>
<path d="M1920 595 c0 -8 5 -15 10 -15 6 0 10 7 10 15 0 8 -4 15 -10 15 -5 0
-10 -7 -10 -15z"/>
<path d="M1607 584 c-18 -18 -6 -34 26 -33 17 0 25 3 17 6 -8 4 -20 13 -25 20
-6 8 -14 11 -18 7z"/>
<path d="M2428 518 c-6 -17 1 -38 13 -38 5 0 8 11 7 25 -3 27 -13 33 -20 13z"/>
<path d="M1510 505 c-9 -11 -9 -15 -1 -15 6 0 11 -8 11 -17 1 -15 3 -15 19 5
22 26 31 28 31 7 0 -8 5 -15 10 -15 6 0 10 4 10 9 0 5 2 15 5 23 7 19 -69 22
-85 3z"/>
<path d="M2382 490 c-11 -17 -10 -23 3 -37 19 -19 23 -16 27 21 4 35 -12 44
-30 16z"/>
<path d="M2220 425 c-32 -33 -55 -39 -44 -11 3 7 -2 18 -10 25 -34 29 -95 -29
-66 -64 26 -32 94 -5 138 54 30 40 24 39 -18 -4z m-78 -20 c-3 -20 -7 -23 -18
-14 -11 9 -11 15 -3 25 18 21 27 17 21 -11z"/>
</g>
</svg>
